<svg width="565" height="655" viewBox="0 0 565 655" fill="none" xmlns="http://www.w3.org/2000/svg">
<path fill-rule="evenodd" clip-rule="evenodd" d="M559.211 28.75L565 0H422H415H0V655H415H422H565L551.292 608.125C542.56 584.722 527.616 569.806 513.41 555.626C495.746 537.995 479.223 521.502 477.195 491.25C475.199 461.471 493.618 411.786 511.364 363.915C526.145 324.043 540.46 285.429 542.123 260.625C543.997 232.66 533.667 216.671 523.146 200.387C513.131 184.886 502.944 169.118 502.944 142.5C502.944 109.035 517.984 89.8222 533.369 70.1704C543.077 57.7692 552.922 45.1931 559.211 28.75Z" fill="#E60013"/>
<path fill-rule="evenodd" clip-rule="evenodd" d="M486.37 28.75L491.519 0H358.105H-3.05176e-05V655H358.105H491.519L479.327 608.125C471.56 584.722 458.269 569.806 445.633 555.626C429.923 537.995 415.226 521.502 413.423 491.25C411.648 461.471 428.03 411.786 443.814 363.915C456.961 324.043 469.693 285.429 471.171 260.625C472.838 232.66 463.65 216.671 454.293 200.387C445.386 184.886 436.325 169.118 436.325 142.5C436.325 109.035 449.702 89.8222 463.385 70.1704C472.02 57.7692 480.777 45.1931 486.37 28.75Z" fill="#CA0011"/>
<path fill-rule="evenodd" clip-rule="evenodd" d="M400.992 28.75L405.237 0H295.242H-6.10352e-05V655H295.242H405.237L395.185 608.125C388.781 584.722 377.823 569.806 367.406 555.626C354.453 537.995 342.337 521.502 340.85 491.25C339.386 461.471 352.893 411.786 365.906 363.915C376.745 324.043 387.242 285.429 388.461 260.625C389.835 232.66 382.26 216.671 374.545 200.387C367.201 184.886 359.731 169.118 359.731 142.5C359.731 109.035 370.76 89.8222 382.042 70.1704C389.161 57.7692 396.38 45.1931 400.992 28.75Z" fill="#A0000E"/>
<path fill-rule="evenodd" clip-rule="evenodd" d="M328.084 28.75L331.557 0H241.562H-0.00012207V655H241.562H331.557L323.333 608.125C318.094 584.722 309.128 569.806 300.605 555.626C290.007 537.995 280.094 521.502 278.877 491.25C277.679 461.471 288.73 411.786 299.377 363.915C308.246 324.043 316.834 285.429 317.831 260.625C318.956 232.66 312.758 216.671 306.446 200.387C300.437 184.886 294.325 169.118 294.325 142.5C294.325 109.035 303.349 89.8222 312.579 70.1704C318.404 57.7692 324.311 45.1931 328.084 28.75Z" fill="#85010C"/>
<path fill-rule="evenodd" clip-rule="evenodd" d="M257.095 28.75L259.817 0H189.294H-0.00012207V655H189.294H259.817L253.372 608.125C249.266 584.722 242.241 569.806 235.561 555.626C227.257 537.995 219.488 521.502 218.535 491.25C217.597 461.471 226.256 411.786 234.6 363.915C241.549 324.043 248.279 285.429 249.061 260.625C249.942 232.66 245.085 216.671 240.139 200.387C235.43 184.886 230.641 169.118 230.641 142.5C230.641 109.035 237.712 89.8222 244.945 70.1704C249.51 57.7692 254.138 45.1931 257.095 28.75Z" fill="#680009"/>
<path fill-rule="evenodd" clip-rule="evenodd" d="M180.35 28.75L182.26 0H132.788H-1.52588e-05V655H132.788H182.26L177.739 608.125C174.859 584.722 169.93 569.806 165.245 555.626C159.419 537.995 153.97 521.502 153.301 491.25C152.643 461.471 158.717 411.786 164.57 363.915C169.445 324.043 174.166 285.429 174.714 260.625C175.333 232.66 171.926 216.671 168.456 200.387C165.153 184.886 161.793 169.118 161.793 142.5C161.793 109.035 166.753 89.8222 171.827 70.1704C175.029 57.7692 178.276 45.1931 180.35 28.75Z" fill="#490007"/>
<path fill-rule="evenodd" clip-rule="evenodd" d="M93.053 28.75L94.0381 0H68.5131H-7.62939e-05V655H68.5131H94.0381L91.7055 608.125C90.2195 584.722 87.6766 569.806 85.2591 555.626C82.2534 537.995 79.4417 521.502 79.0966 491.25C78.757 461.471 81.8913 411.786 84.9111 363.915C87.4263 324.043 89.8622 285.429 90.1451 260.625C90.4641 232.66 88.7062 216.671 86.9159 200.387C85.2118 184.886 83.4782 169.118 83.4782 142.5C83.4782 109.035 86.0376 89.8222 88.6555 70.1704C90.3075 57.7692 91.9828 45.1931 93.053 28.75Z" fill="#380106"/>
</svg>
